<svg width="121px" height="60px" viewBox="0 0 121 60" version="1.1" xmlns="http://www.w3.org/2000/svg" xmlns:xlink="http://www.w3.org/1999/xlink">
    <g stroke="none" stroke-width="1" fill="none" fill-rule="evenodd">
        <g transform="translate(-622.000000, -9.000000)" fill="#FFFFFF" fill-rule="nonzero">
            <g>
                <g transform="translate(622.000000, 9.000000)">
                    <g transform="translate(0.083853, 49.640908)">
                        <g>
                            <polygon points="62.3890619 2.15613718 62.3890619 3.74486983 68.1413698 3.74486983 67.0946062 5.69165431 62.3890619 5.69165431 62.3890619 9.33869578 59.9981366 9.33869578 59.9981366 0.21130927 68.4544205 0.21130927 68.4544205 2.15613718"></polygon>
                            <path d="M72.6669099,9.34065234 L70.2720716,9.34065234 L70.2720716,0.213265837 L76.2630807,0.213265837 C76.9146176,0.213265837 77.4585433,0.28370226 77.9065972,0.420661972 C78.3546511,0.553708549 78.7185726,0.753278415 79.0042315,1.00371903 C79.2801075,1.25807278 79.4835905,1.56134071 79.6088108,1.9154794 C79.7379442,2.27157465 79.8025109,2.67071438 79.8025109,3.11094203 C79.8025109,3.49442922 79.7535967,3.83291536 79.6459855,4.11857419 C79.544244,4.40618959 79.4014146,4.6566302 79.223367,4.86206977 C79.0433628,5.06750934 78.8340101,5.23968726 78.6050917,5.38056011 C78.3624774,5.52338952 78.1159499,5.63882699 77.8557265,5.73469879 L80.7534026,9.34065234 L77.9515983,9.34065234 L75.2769707,5.9792697 L72.6669099,5.9792697 L72.6669099,9.34065234 L72.6669099,9.34065234 Z M77.3841937,3.09528949 C77.3841937,2.91919843 77.3646281,2.77049931 77.3157139,2.64136587 C77.2726694,2.5200587 77.1944067,2.41636063 77.0867955,2.34201107 C76.9752712,2.26374838 76.826572,2.20309479 76.6387416,2.17178972 C76.4509111,2.1365715 76.2180796,2.11700583 75.9363339,2.11700583 L72.6669099,2.11700583 L72.6669099,4.06966001 L75.9363339,4.06966001 C76.216123,4.06966001 76.4509111,4.05400747 76.6387416,4.01878926 C76.826572,3.98357105 76.9752712,3.92683059 77.0867955,3.85052447 C77.1944067,3.77226178 77.2726694,3.67247684 77.3157139,3.54725654 C77.3646281,3.42203623 77.3841937,3.27138054 77.3841937,3.09528949 Z"></path>
                            <polygon points="82.2951777 9.34065234 82.2951777 0.215222404 84.6841464 0.215222404 84.6841464 9.33869578 82.2951777 9.33869578"></polygon>
                            <path d="M97.3724854,4.77011111 C97.3724854,5.35316816 97.3079187,5.8716585 97.1826984,6.32558212 C97.0653043,6.77950573 96.8853001,7.1766889 96.6583383,7.50930534 C96.4372462,7.84779149 96.1672399,8.13149375 95.8463629,8.36823839 C95.5333121,8.60498304 95.18113,8.79085693 94.7937297,8.92977321 C94.4102425,9.07260262 93.9934936,9.17434412 93.5454397,9.23891084 C93.0973858,9.30543413 92.6336794,9.33869578 92.1484507,9.33869578 L86.535059,9.33869578 L86.535059,0.21130927 L92.1347547,0.21130927 C92.6199834,0.21130927 93.0836898,0.240657779 93.5317438,0.309137635 C93.9797977,0.371747789 94.4004596,0.475445857 94.7859034,0.616318703 C95.1772169,0.759148117 95.5274424,0.946978579 95.8483194,1.17785352 C96.1613702,1.41068503 96.4392028,1.69634386 96.6602949,2.03483 C96.8872567,2.37527272 97.0672609,2.77049931 97.1846549,3.22246636 C97.3098752,3.67443341 97.3724854,4.18901061 97.3724854,4.77011111 Z M94.9659076,4.77011111 C94.9659076,4.32988346 94.905254,3.9503094 94.7995994,3.62551923 C94.688075,3.30464219 94.5178537,3.0346359 94.2693696,2.8252832 C94.0306684,2.61788706 93.7097914,2.45744854 93.3204345,2.35179391 C92.9271645,2.25005241 92.4556317,2.19722509 91.8882272,2.19722509 L88.9220712,2.19722509 L88.9220712,7.35473652 L91.8882272,7.35473652 C92.4556317,7.35473652 92.9271645,7.30190921 93.3204345,7.19625457 C93.7097914,7.0925565 94.0306684,6.93603112 94.2693696,6.71885215 C94.5178537,6.50167318 94.688075,6.23362345 94.7995994,5.91274641 C94.9072106,5.58795624 94.9659076,5.20642562 94.9659076,4.77011111 Z"></path>
                            <path d="M105.683983,7.61104684 L100.745607,7.61104684 L99.9160229,9.33869578 L97.2492216,9.33869578 L101.876503,0.21130927 L104.543305,0.21130927 L109.176456,9.33869578 L106.507698,9.33869578 L105.683983,7.61104684 Z M101.60454,5.83252716 L104.840703,5.83252716 L103.224578,2.47114451 L101.60454,5.83252716 Z"></path>
                            <polygon points="110.886496 9.34065234 112.271745 6.68363394 108.344915 0.213265837 110.911931 0.213265837 113.455469 4.51771392 115.738783 0.213265837 118.423193 0.213265837 113.56895 9.34065234"></polygon>
                            <g>
                                <polygon points="12.3733317 9.34065234 12.3733317 0.23283151 21.2267988 0.23283151 20.768962 1.35785771 13.7351025 1.35785771 13.7351025 4.06574687 21.0409249 4.06574687 20.5830881 5.14577203 13.733146 5.14577203 13.733146 8.21758271 21.5789809 8.21758271 21.1211441 9.34065234"></polygon>
                                <polygon points="29.0961125 9.34065234 27.7206457 9.34065234 23.1109731 0.23283151 24.6233996 0.23283151 28.4328362 7.90844507 32.1307484 0.23283151 33.6255658 0.23283151"></polygon>
                                <polygon points="35.899097 9.34065234 35.899097 0.23283151 44.7584338 0.23283151 44.3005971 1.35785771 37.2628244 1.35785771 37.2628244 4.06574687 44.5608205 4.06574687 44.1029838 5.14577203 37.2628244 5.14577203 37.2628244 8.21758271 45.1086594 8.21758271 44.6508226 9.34065234"></polygon>
                                <polygon points="56.5976226 9.34065234 49.0746213 1.80982476 49.1078829 9.34065234 47.7989394 9.34065234 47.7989394 0.23283151 49.2017982 0.23283151 56.6661025 7.75387625 56.6308843 0.23283151 58.2059209 0.23283151 58.2059209 9.34065234"></polygon>
                                <path d="M8.24888778,0.864802752 C7.55430639,0.440227645 6.41167108,0.00195656731 4.50793109,0.00195656731 C2.96224291,0.00195656731 1.90569656,0.297398231 1.34024861,0.59675303 C0.93132604,0.80023603 -1.13686838e-13,1.37937995 -1.13686838e-13,2.65701841 C-1.13686838e-13,2.96615604 0.031305077,3.61182326 0.692624828,4.18118434 C1.39503249,4.79750305 2.28722719,4.88946171 4.12835703,5.02837799 C4.88946171,5.09685785 6.54667422,5.18294681 7.25690816,5.48230161 C7.75583282,5.68774117 8.07084016,6.0751415 8.07084016,6.60341468 C8.07084016,6.84798559 7.98866433,7.41734668 7.41930324,7.83018238 C6.49384691,8.48954556 5.0518568,8.44845765 4.80728588,8.44845765 C4.49227855,8.44845765 3.18529158,8.43671825 2.08765732,8.01018657 C1.42046787,7.74996312 0.972413954,7.41734668 0.765017819,7.22364651 C0.694581396,7.14734039 0.633927809,7.08277367 0.569361088,7.01233724 L0.0528273174,8.29193227 C0.1017415,8.33106361 0.142829414,8.37019496 0.197613298,8.4093263 C0.36392152,8.52672034 0.700451097,8.75563872 1.20720203,8.96499142 C1.67482162,9.15869158 2.01917747,9.23695428 2.238313,9.28978159 C3.25964114,9.53435251 4.44336436,9.55587475 4.70945752,9.55587475 C5.32381965,9.55587475 5.88339791,9.49326459 6.10057688,9.46587265 C6.45080243,9.42869787 8.07279673,9.24869368 8.93172978,8.10997151 C9.11760367,7.87127029 9.41695847,7.36451936 9.41695847,6.5897187 C9.41695847,6.31775585 9.39543623,5.73861192 8.91803381,5.15751143 C8.45628392,4.61554229 7.7753985,4.25357733 6.28840734,4.08531255 C5.22599129,3.96987507 4.17335808,3.91900432 3.11094203,3.78987088 C2.55136377,3.72726073 1.87243492,3.67638998 1.52807907,3.15789964 C1.42242444,2.99159142 1.37155369,2.78419528 1.37155369,2.59049512 C1.37155369,2.20113823 1.59851549,1.66112565 2.43396974,1.36568398 C2.78419528,1.23655054 3.5492131,1.07024232 4.52162706,1.07024232 C6.03209702,1.07024232 6.94581396,1.48307802 7.47800026,1.82939044 C7.74409342,2.0113512 7.9906209,2.24418271 8.05714419,2.30874943 L8.07084016,2.30287973 L8.55998199,1.08393829 C8.45824049,1.0115453 8.36041212,0.937195742 8.24888778,0.864802752 Z"></path>
                            </g>
                        </g>
                        <path d="M119.937576,0.21130927 C119.409303,0.21130927 118.980815,0.639797511 118.980815,1.16807068 C118.980815,1.69634386 119.409303,2.1248321 119.937576,2.1248321 C120.465849,2.1248321 120.894338,1.69634386 120.894338,1.16807068 C120.894338,0.641754078 120.465849,0.21130927 119.937576,0.21130927 Z M119.937576,1.97221985 C119.493435,1.97221985 119.135384,1.61416803 119.135384,1.17002725 C119.135384,0.725886473 119.493435,0.367834655 119.937576,0.367834655 C120.381717,0.367834655 120.739769,0.725886473 120.739769,1.17002725 C120.737812,1.61221146 120.37976,1.97026328 119.937576,1.97221985 Z M120.201713,1.28546472 C120.172364,1.25415965 120.137146,1.2267677 120.092145,1.20133233 C120.180191,1.18959293 120.244757,1.15828785 120.289758,1.10937367 C120.334759,1.06045948 120.356282,0.997849329 120.356282,0.923499771 C120.356282,0.864802752 120.342586,0.811975434 120.313237,0.766974386 C120.283889,0.720016771 120.244757,0.688711694 120.195843,0.671102588 C120.148885,0.653493482 120.070623,0.645667213 119.963012,0.645667213 L119.538436,0.645667213 L119.538436,1.64547311 L119.739963,1.64547311 L119.739963,1.22872427 L119.781051,1.22872427 C119.828008,1.22872427 119.86127,1.23263741 119.884749,1.24046368 C119.906271,1.24633338 119.925837,1.26198592 119.945402,1.28155159 C119.964968,1.30111726 120.000186,1.35003144 120.051057,1.42829414 L120.1978,1.64742968 L120.438457,1.64742968 L120.31715,1.45177295 C120.268236,1.37155369 120.229105,1.3167698 120.201713,1.28546472 Z M119.890619,1.06632918 L119.741919,1.06632918 L119.741919,0.811975434 L119.898445,0.811975434 C119.980621,0.811975434 120.029535,0.813932002 120.047144,0.815888569 C120.080406,0.821758271 120.103884,0.833497675 120.12345,0.855019915 C120.141059,0.876542155 120.148885,0.903934098 120.148885,0.937195742 C120.148885,0.966544252 120.141059,0.991979627 120.12932,1.0115453 C120.115624,1.03111097 120.098015,1.04480694 120.072579,1.05458978 C120.047144,1.06241605 119.98649,1.06632918 119.890619,1.06632918 Z"></path>
                    </g>
                    <g transform="translate(34.323781, 0.531068)">
                        <g>
                            <path d="M25.5234206,38.5111144 C23.2459762,38.5111144 21.4831091,38.5111144 21.4831091,38.5111144 L36.3275853,11.3167853 L57.3665536,13.122697 L57.6385164,13.1461758 C57.7422145,13.1559586 57.8263469,13.2342213 57.843956,13.3359628 L57.9065661,13.7174934 L58.2822271,16.0203731 L54.4610511,18.4778217 L39.0804755,18.5521712 L37.1649961,22.0368176 L41.7961909,27.1101967 L35.5664806,38.5111144 C35.5664806,38.5111144 29.6850392,38.5111144 25.5234206,38.5111144 Z"></path>
                            <path d="M33.719481,10.115453 L24.4805702,0.00782626925 L0.459793318,3.8309588 C0.248484049,3.86422044 0.0900020963,4.0461812 0.0860889617,4.2614036 L0.0332616443,7.20995054 L5.35512473,9.95305791 L20.5537396,8.55019915 L22.8664022,11.0800407 L10.2954572,34.0931854 L12.498552,38.5091578 L18.2078154,38.5091578 L33.719481,10.115453 Z"></path>
                        </g>
                        <path d="M38.5815508,36.4469359 C38.0532776,36.4469359 37.6247894,36.8754241 37.6247894,37.4036973 C37.6247894,37.9319705 38.0532776,38.3604587 38.5815508,38.3604587 C39.109824,38.3604587 39.5383122,37.9319705 39.5383122,37.4036973 C39.5383122,36.8754241 39.109824,36.4469359 38.5815508,36.4469359 Z M38.5815508,38.2058899 C38.13741,38.2058899 37.7793582,37.8478381 37.7793582,37.4036973 C37.7793582,36.9595565 38.13741,36.6015047 38.5815508,36.6015047 C39.0256916,36.6015047 39.3837434,36.9595565 39.3837434,37.4036973 C39.3837434,37.8458815 39.0256916,38.2039333 38.5815508,38.2058899 Z M38.8456874,37.5210913 C38.8163389,37.4897863 38.7811207,37.4623943 38.7361196,37.4369589 C38.8241652,37.4252195 38.8887319,37.3939145 38.9337329,37.3450003 C38.978734,37.2960861 39.0002562,37.2334759 39.0002562,37.1591264 C39.0002562,37.1004294 38.9865602,37.047602 38.9572117,37.002601 C38.9278632,36.9556434 38.8887319,36.9243383 38.8398177,36.9067292 C38.7928601,36.8891201 38.7145974,36.8812938 38.6069862,36.8812938 L38.1824111,36.8812938 L38.1824111,37.8810997 L38.3839375,37.8810997 L38.3839375,37.4643509 L38.4250254,37.4643509 C38.471983,37.4643509 38.5052447,37.468264 38.5287235,37.4760903 C38.5502457,37.48196 38.5698114,37.4976125 38.5893771,37.5171782 C38.6089428,37.5367439 38.644161,37.5856581 38.6950317,37.6639207 L38.8417743,37.8830563 L39.082432,37.8830563 L38.9611249,37.6873996 C38.9122107,37.6052237 38.8750359,37.5504398 38.8456874,37.5210913 Z M38.5345932,37.3019558 L38.3858941,37.3019558 L38.3858941,37.047602 L38.5424195,37.047602 C38.6245953,37.047602 38.6735095,37.0495586 38.6911186,37.0515152 C38.7243802,37.0573849 38.747859,37.0691243 38.7674247,37.0906465 C38.7850338,37.1121688 38.7928601,37.1395607 38.7928601,37.1728223 C38.7928601,37.2021709 38.7850338,37.2276062 38.7732944,37.2471719 C38.7595984,37.2667376 38.7419893,37.2804336 38.716554,37.2902164 C38.6930751,37.2960861 38.6324216,37.3019558 38.5345932,37.3019558 Z"></path>
                    </g>
                </g>
            </g>
        </g>
    </g>
</svg>